<svg width="58" height="59" viewBox="0 0 58 59" fill="none" xmlns="http://www.w3.org/2000/svg">
<path d="M39.8918 13.4998C39.8918 20.6723 34.0773 26.4868 26.9048 26.4868C19.7322 26.4868 13.9177 20.6723 13.9177 13.4998C13.9177 6.32723 19.7322 0.512743 26.9048 0.512743C34.0773 0.512743 39.8918 6.32723 39.8918 13.4998Z" fill="#C1FF31"/>
<circle cx="44.6433" cy="22.1037" r="12.987" fill="#C1FF31"/>
<circle cx="41.987" cy="42.987" r="12.987" fill="#C1FF31"/>
<circle cx="21.1042" cy="45.6428" r="12.987" fill="#C1FF31"/>
<circle cx="12.987" cy="26.9738" r="12.987" fill="#C1FF31"/>
<path d="M36.837 31C36.837 35.0346 33.5663 38.3052 29.5318 38.3052C25.4972 38.3052 22.2266 35.0346 22.2266 31C22.2266 26.9655 25.4972 23.6948 29.5318 23.6948C33.5663 23.6948 36.837 26.9655 36.837 31Z" fill="#1E3540"/>
</svg>
